<svg xmlns="http://www.w3.org/2000/svg" viewBox="0 0 100 100" fill="none">
  <path d="M 98 50 A 48 48 0 1 1 2 50 A 48 48 0 1 1 98 50 M 90.84511482813595 46.67780273367329 L 82.23356098976481 46.56945058640566 L 82.02312055668114 44.97099680132676 L 90.31319921435197 42.63750252265091 L 88.59350336612621 36.219510243507145 L 80.24733750987414 38.343684247423624 L 79.63035737836856 36.85416244622808 L 87.03400569482153 32.45454981495415 L 83.71180842849483 26.700335356909868 L 76.19980796477424 30.912276564007104 L 75.21833431120092 29.6331951958952 L 81.23100588877715 23.46729054214088 L 76.53270945785911 18.76899411122284 L 70.36680480410479 24.781665688799073 L 69.08772343599288 23.800192035225756 L 73.29966464309013 16.288191571505152 L 67.54545018504584 12.965994305178455 L 63.145837553771905 20.36964262163144 L 61.65631575257636 19.752662490125847 L 63.78048975649284 11.406496633873786 L 57.36249747734904 9.686800785648025 L 55.02900319867322 17.976879443318857 L 53.43054941359433 17.766439010235196 L 53.3221972663267 9.154885171864052 L 46.67780273367329 9.154885171864052 L 46.569450586405665 17.766439010235196 L 44.9709968013268 17.976879443318857 L 42.63750252265095 9.686800785648025 L 36.21951024350711 11.4064966338738 L 38.343684247423624 19.75266249012585 L 36.85416244622809 20.369642621631446 L 32.45454981495418 12.965994305178441 L 26.70033535690984 16.288191571505187 L 30.912276564007108 23.800192035225763 L 29.633195195895226 24.781665688799063 L 23.46729054214091 18.768994111222824 L 18.76899411122283 23.46729054214091 L 24.781665688799055 29.633195195895233 L 23.800192035225766 30.912276564007104 L 16.288191571505166 26.700335356909868 L 12.965994305178427 32.454549814954206 L 20.36964262163144 36.854162446228095 L 19.752662490125847 38.34368424742364 L 11.4064966338738 36.2195102435071 L 9.686800785648018 42.63750252265098 L 17.976879443318857 44.97099680132679 L 17.766439010235196 46.56945058640567 L 9.154885171864052 46.67780273367328 L 9.154885171864052 53.322197266326725 L 17.766439010235196 53.43054941359432 L 17.976879443318857 55.02900319867323 L 9.686800785648018 57.36249747734903 L 11.406496633873807 63.780489756492905 L 19.75266249012585 61.65631575257637 L 20.369642621631442 63.14583755377191 L 12.965994305178434 67.54545018504581 L 16.288191571505173 73.29966464309014 L 23.80019203522577 69.0877234359929 L 24.78166568879907 70.36680480410479 L 18.768994111222824 76.53270945785908 L 23.467290542140905 81.23100588877716 L 29.633195195895222 75.21833431120093 L 30.9122765640071 76.19980796477424 L 26.70033535690986 83.71180842849483 L 32.45454981495419 87.03400569482156 L 36.8541624462281 79.63035737836856 L 38.34368424742363 80.24733750987414 L 36.219510243507116 88.5935033661262 L 42.637502522650976 90.31319921435198 L 44.9709968013268 82.02312055668114 L 46.56945058640568 82.23356098976481 L 46.677802733673275 90.84511482813595 L 53.32219726632674 90.84511482813595 L 53.43054941359434 82.23356098976481 L 55.02900319867321 82.02312055668114 L 57.362497477349024 90.31319921435198 L 63.7804897564929 88.5935033661262 L 61.656315752576376 80.24733750987414 L 63.145837553771905 79.63035737836856 L 67.54545018504581 87.03400569482156 L 73.29966464309014 83.71180842849483 L 69.0877234359929 76.19980796477422 L 70.36680480410477 75.21833431120095 L 76.5327094578591 81.23100588877716 L 81.23100588877718 76.53270945785908 L 75.21833431120095 70.36680480410477 L 76.19980796477424 69.0877234359929 L 83.71180842849483 73.29966464309013 L 87.03400569482156 67.54545018504581 L 79.63035737836856 63.145837553771905 L 80.24733750987414 61.656315752576376 L 88.5935033661262 63.780489756492884 L 90.31319921435198 57.36249747734903 L 82.02312055668114 55.02900319867321 L 82.23356098976481 53.43054941359433 L 90.84511482813595 53.322197266326725 Z" fill="#6e56a3"/>
  <path d="M 77.62739632548401 55.75480575636612 L 82.91347364159037 57.27964228222868 L 82.6658672232617 62.00425419511691 L 77.24935877300157 62.968191968377916 L 74.69849016057383 68.31619922987824 L 77.35808902903067 73.13224259361178 L 73.84219972948713 76.29796353822428 L 69.33054293783924 73.14952061880582 L 63.74519424363388 75.12739632548401 L 62.22035771777133 80.41347364159037 L 57.49574580488309 80.1658672232617 L 56.531808031622084 74.74935877300157 L 51.18380077012176 72.19849016057383 L 46.36775740638822 74.85808902903067 L 43.20203646177573 71.34219972948713 L 46.35047938119418 66.83054293783924 L 44.372603674515986 61.24519424363389 L 39.08652635840963 59.72035771777132 L 39.3341327767383 54.99574580488309 L 44.750641226998425 54.03180803162209 L 47.301509839426174 48.68380077012176 L 44.641910970969334 43.86775740638823 L 48.157800270512865 40.702036461775734 L 52.66945706216076 43.850479381194184 L 58.25480575636611 41.872603674515986 L 59.77964228222867 36.58652635840963 L 64.50425419511691 36.8341327767383 L 65.46819196837792 42.250641226998425 L 70.81619922987824 44.801509839426174 L 75.63224259361178 42.141910970969334 L 78.79796353822428 45.65780027051288 L 75.64952061880581 50.16945706216076 Z M 71.18987732997802 58.5 A 10.189877329978023 10.189877329978023 0 1 1 50.810122670021975 58.5 A 10.189877329978023 10.189877329978023 0 1 1 71.18987732997802 58.5 Z" fill="#d4b8ff" fill-rule="evenodd"/>
</svg>